<svg id="Capa_1" enable-background="new 0 0 512 512" height="512" viewBox="0 0 512 512" width="512" xmlns="http://www.w3.org/2000/svg"><g><g><path d="m439.786 201.833h-27.181c17.7-27.101 14.658-63.788-9.14-87.586-27.295-27.295-71.549-27.295-98.844 0l-6.263 6.263v-34.121c.001-47.711-38.677-86.389-86.388-86.389-47.711 0-86.389 38.678-86.389 86.389v37.48h-14.385c-61.412 0-111.196 49.784-111.196 111.196 0 61.412 49.784 111.196 111.196 111.196h328.59c39.883 0 72.214-32.331 72.214-72.214 0-39.882-32.331-72.214-72.214-72.214z" fill="#edf5ff"/><path d="m439.786 201.833h-27.181c17.7-27.101 14.658-63.788-9.14-87.586-27.295-27.295-71.549-27.295-98.844 0l-6.263 6.263v-34.121c0-47.495-38.331-86.024-85.743-86.373v346.245h227.171c39.883 0 72.214-32.331 72.214-72.214s-32.331-72.214-72.214-72.214z" fill="#d6e8fd"/></g><path d="m189.827 192.322c-1.764-.179-3.543-.297-5.349-.297-18.502.001-35.071 9.566-44.322 25.59l-117.323 203.209c-9.251 16.024-9.251 35.157 0 51.18 9.251 16.024 25.821 25.59 44.323 25.59h122.671z" fill="#fd657d"/><g><path d="m346.125 420.824-117.323-203.209c-9.252-16.023-25.821-25.59-44.323-25.59v305.569h117.323c18.502 0 35.072-9.567 44.323-25.59s9.251-35.156 0-51.18z" fill="#e43b54"/></g><g><g><path d="m187.845 481.953h-131.751c-9.384 0-17.788-4.852-22.481-12.979-4.692-8.127-4.692-17.832 0-25.959l128.385-222.369c4.692-8.127 13.096-12.979 22.48-12.979 1.138 0 2.262.074 3.366.214v-30.159c-1.115-.065-2.237-.102-3.367-.102-20.246.001-38.377 10.469-48.501 28.003l-128.383 222.368c-10.123 17.534-10.123 38.471 0 56.006 10.123 17.534 28.255 28.003 48.501 28.003h131.751z" fill="#e43b54"/></g></g><g><path d="m361.366 427.991-128.385-222.368c-10.124-17.534-28.255-28.002-48.502-28.003v30.047c9.385 0 17.788 4.852 22.481 12.979l128.385 222.369c4.692 8.127 4.692 17.832 0 25.959-4.693 8.127-13.097 12.979-22.48 12.979h-128.386v30.047h128.385c20.246 0 38.378-10.469 48.502-28.003s10.124-38.471 0-56.006z" fill="#df004b"/></g><g fill="#fed943"><path d="m184.651 387.876v-88.818h-18.245l6.024 88.818z"/><path d="m184.651 410.682c-.058 0-.113-.007-.171-.007-10.883 0-18.658 7.386-18.658 17.298 0 9.717 7.775 17.686 18.658 17.686.058 0 .113-.007.171-.008z"/></g><g fill="#fcbe2c"><path d="m202.554 299.058h-18.075v88.818h12.051z"/><path d="m203.137 427.973c0-9.912-7.774-17.298-18.657-17.298v34.984c10.883 0 18.657-7.969 18.657-17.686z"/></g></g></svg>