<svg height="512" viewBox="0 0 58 59" width="512" xmlns="http://www.w3.org/2000/svg"><g id="Page-1" fill="none" fill-rule="evenodd"><g id="023---Schedule-Deadline" fill-rule="nonzero"><path id="Shape" d="m24.03 43h-22.03c-1.10320187-.0032948-1.9967052-.8967981-2-2v-36c.0032948-1.10320187.89679813-1.9967052 2-2h36c1.1032019.0032948 1.9967052.89679813 2 2v13z" fill="#ecf0f1"/><path id="Shape" d="m40 5v5h-40v-5c.0032948-1.10320187.89679813-1.9967052 2-2h36c1.1032019.0032948 1.9967052.89679813 2 2z" fill="#e64c3c"/><g fill="#95a5a5"><rect id="Rectangle-path" height="6" rx="1" width="2" x="4.001"/><rect id="Rectangle-path" height="6" rx="1" width="2" x="10.001"/><rect id="Rectangle-path" height="6" rx="1" width="2" x="16.001"/><rect id="Rectangle-path" height="6" rx="1" width="2" x="22.001"/><rect id="Rectangle-path" height="6" rx="1" width="2" x="28.001"/><rect id="Rectangle-path" height="6" rx="1" width="2" x="34.001"/><rect id="Rectangle-path" height="5" rx="1" width="5.984" x="5.016" y="14"/><rect id="Rectangle-path" height="5" rx="1" width="5.984" x="17" y="14"/><rect id="Rectangle-path" height="5" rx="1" width="5.984" x="29" y="14"/><rect id="Rectangle-path" height="5" rx="1" width="5.984" x="17.008" y="32"/><rect id="Rectangle-path" height="5" rx="1" width="5.984" x="5.016" y="23"/><rect id="Rectangle-path" height="5" rx="1" width="5.984" x="17" y="23"/><rect id="Rectangle-path" height="5" rx="1" width="5.984" x="5.016" y="32"/></g><path id="Shape" d="m58 42c.0107903 8.4447213-6.178934 15.6171783-14.5343705 16.8419697s-16.3432861-3.8694295-18.7566295-11.9619697c-3.94-13.35 9.61-24.939 14.55-28.639.3401424-.2517261.787333-.3067653 1.1783633-.1450303s.6686875.5165804.7316367.9350303c.49 2.88 2.02 4.98 3.83 4.98 1.2890964-.1374122 2.3990662-.9705615 2.891-2.17.0720065-.1417587.2088014-.239331.3662805-.2612584.1574791-.0219275.3157257.034563.4237195.1512584 4.64 5.031 9.32 13.569 9.32 20.269z" fill="#f29c1f"/><circle id="Oval" cx="41" cy="42" fill="#e57e25" r="15"/><path id="Shape" d="m54 42c-.0049685 6.4675593-4.7635584 11.9478742-11.1664687 12.8600628-6.4029103.9121885-12.5026207-3.0212021-14.3135313-9.2300628-.3467679-1.1787471-.5219003-2.4013059-.52-3.63 0-7.1797017 5.8202983-13 13-13s13 5.8202983 13 13z" fill="#2fa8cc"/><path id="Shape" d="m49 35c-.0009251 4.852423-2.7042709 9.3004232-7.0111081 11.5358567-4.3068371 2.2354335-9.5001778 1.886153-13.4688919-.9058567-.3467679-1.1787471-.5219003-2.4013059-.52-3.63.0009251-4.852423 2.7042709-9.3004232 7.0111081-11.5358567 4.3068371-2.2354335 9.5001778-1.886153 13.4688919.9058567.3467679 1.1787471.5219003 2.4013059.52 3.63z" fill="#67b9cc"/><path id="Shape" d="m42 29.05v1.95c0 .5522847-.4477153 1-1 1s-1-.4477153-1-1v-1.95c.665-.0666667 1.335-.0666667 2 0z" fill="#285680"/><path id="Shape" d="m36 33.34c-.1518353.0889322-.3240602.1371552-.5.14-.3583554.0001843-.6897537-.1902745-.87-.5l-.98-1.7c.5500483-.3773963 1.1284366-.7117248 1.73-1l.98 1.7c.1347392.2275837.1725035.4997221.1048254.755395s-.235136.4734877-.4648254.604605z" fill="#285680"/><path id="Shape" d="m32.34 37c-.2795595.4760311-.8888033.6405714-1.37.37l-1.7-.98c.2921011-.5995368.6262693-1.1776479 1-1.73l1.7.98c.4761364.2746085.6413883.8820208.37 1.36z" fill="#285680"/><path id="Shape" d="m31 42c0 .5522847-.4477153 1-1 1h-1.95c-.0666667-.665-.0666667-1.335 0-2h1.95c.5522847 0 1 .4477153 1 1z" fill="#285680"/><path id="Shape" d="m31.97 48.37-1.69.98c-.3773963-.5500483-.7117248-1.1284366-1-1.73l1.69-.98c.2293087-.1343739.5026768-.1719353.7597298-.1043886.257053.0675468.4766422.2346444.6102702.4643886.2723004.4809795.1074157 1.0914986-.37 1.37z" fill="#285680"/><path id="Shape" d="m36.36 52.03-.98 1.69c-.6015634-.2882752-1.1799517-.6226037-1.73-1l.98-1.69c.2785014-.4774157.8890205-.6423004 1.37-.37.2297442.133628.3968418.3532172.4643886.6102702.0675467.257053.0299853.5304211-.1043886.7597298z" fill="#285680"/><path id="Shape" d="m42 53v1.96c-.33.03-.66.04-1 .04s-.67-.01-1-.04v-1.96c0-.5522847.4477153-1 1-1s1 .4477153 1 1z" fill="#285680"/><path id="Shape" d="m48.34 52.73c-.5523521.3737307-1.1304632.7078989-1.73 1l-.98-1.7c-.2723004-.4809795-.1074157-1.0914986.37-1.37.4779792-.2713883 1.0853915-.1061364 1.36.37z" fill="#285680"/><path id="Shape" d="m52.72 47.62c-.2882752.6015634-.6226037 1.1799517-1 1.73l-1.7-.98c-.4751892-.2808259-.6357495-.8918472-.36-1.37.1315049-.2292741.3493115-.3963704.6048221-.4640055.2555105-.0676352.5274629-.030181.7551779.1040055z" fill="#285680"/><path id="Shape" d="m54 42c0 .34-.01.67-.04 1h-1.96c-.5522847 0-1-.4477153-1-1s.4477153-1 1-1h1.96c.03.33.04.66.04 1z" fill="#285680"/><path id="Shape" d="m52.73 36.39-1.71.98c-.148484.0870586-.3178876.1320024-.49.13-.4503352-.0001324-.8450264-.3012616-.96411-.7355666s.0668217-.8946301.45411-1.1244334l1.71-.98c.3737307.5523521.7078989 1.1304632 1 1.73z" fill="#285680"/><path id="Shape" d="m48.34 31.27-.98 1.71c-.1761919.3088972-.5043864.499708-.86.5-.1759398-.0028448-.3481647-.0510678-.5-.14-.4761364-.2746085-.6413883-.8820208-.37-1.36l.98-1.71c.5995368.2921011 1.1776479.6262693 1.73 1z" fill="#285680"/><path id="Shape" d="m44 46c-.2651948-.0000566-.5195073-.1054506-.707-.293l-3-3c-.2678526-.2676753-.3615324-.6636852-.242-1.023l2-6c.1128959-.3394023.398285-.5927937.748664-.6647241s.712517.0485281.95.316c.2374831.2674719.3142319.6413218.201336.9807241l-1.8 5.414 2.555 2.57c.2808368.2864844.363281.7130708.2094157 1.0835679-.1538652.3704971-.5142523.6131783-.9154157.6164321z" fill="#bdc3c7"/></g></g></svg>