<svg id="Layer_1" enable-background="new 0 0 512 512" height="512" viewBox="0 0 512 512" width="512" xmlns="http://www.w3.org/2000/svg"><g><g><g><path d="m448.522 28.46v406.38l-344.7 17.73-40.3 2.07v-427.34c0-15.05 12.25-27.3 27.3-27.3h329.24c15.689 0 28.46 12.77 28.46 28.46z" fill="#00c2f3"/><g><path d="m448.522 28.46v406.38l-344.7 17.73-40.3 2.07v-46.11c8.24-4.89 17.86-7.69 28.07-7.69h306.46c11.31 0 20.47-9.16 20.47-20.47v-351.91c0-15.69-12.77-28.46-28.46-28.46h30c15.689 0 28.46 12.77 28.46 28.46z" fill="#1e90ff"/></g><path d="m103.822 0v452.57l-40.3 2.07v-427.34c0-15.05 12.25-27.3 27.3-27.3z" fill="#56788b"/><g><path d="m103.822 400.84v51.73l-40.3 2.07v-46.11c8.24-4.89 17.86-7.69 28.07-7.69z" fill="#415e6f"/></g></g><g><path d="m432.979 434.84v39.6h-342.2c-10.94 0-19.8-8.86-19.8-19.8 0-10.93 8.86-19.8 19.8-19.8z" fill="#fdeda5"/><path d="m404.669 434.84h28.31v39.6h-28.31z" fill="#fbdf63"/><path d="m440.979 466.94h-350.203c-6.781 0-12.298-5.517-12.298-12.298s5.517-12.298 12.298-12.298h350.202c4.143 0 7.5-3.358 7.5-7.5s-3.357-7.5-7.5-7.5h-350.202c-15.052 0-27.298 12.246-27.298 27.298s12.246 27.298 27.298 27.298h350.202c4.143 0 7.5-3.358 7.5-7.5s-3.357-7.5-7.499-7.5z" fill="#56788b"/><path d="m375.898 442.34v62.16c0 2.63-1.38 5.07-3.63 6.42-1.19.72-2.53 1.08-3.87 1.08-1.21 0-2.41-.29-3.51-.87l-5.33-2.82-17.54-9.27-22.88 12.09c-2.32 1.23-5.12 1.15-7.37-.21-2.25-1.35-3.63-3.79-3.63-6.42v-62.16z" fill="#ed2061"/><path d="m375.898 442.34v62.16c0 2.63-1.38 5.07-3.63 6.42-1.19.72-2.53 1.08-3.87 1.08-1.21 0-2.41-.29-3.51-.87l-5.33-2.82v-65.97z" fill="#c71e54"/></g></g><g fill="#fff"><path d="m214.687 97.159c4.142 0 7.5-3.357 7.5-7.5s-3.358-7.5-7.5-7.5h-39.117c-4.142 0-7.5 3.357-7.5 7.5v78.259c0 4.143 3.358 7.5 7.5 7.5s7.5-3.357 7.5-7.5v-31.629h31.617c4.142 0 7.5-3.357 7.5-7.5s-3.358-7.5-7.5-7.5h-31.617v-24.13z"/><path d="m292.968 175.418c4.142 0 7.5-3.357 7.5-7.5v-78.259c0-4.143-3.358-7.5-7.5-7.5h-39.117c-4.142 0-7.5 3.357-7.5 7.5v78.259c0 4.143 3.358 7.5 7.5 7.5s7.5-3.357 7.5-7.5v-31.629h24.117v31.629c0 4.142 3.358 7.5 7.5 7.5zm-31.617-54.129v-24.13h24.117v24.13z"/><path d="m324.608 89.659v78.259c0 4.143 3.358 7.5 7.5 7.5h36.01l5.192 5.192c1.464 1.464 3.384 2.196 5.303 2.196s3.839-.732 5.303-2.196c2.929-2.93 2.929-7.678 0-10.607l-5.192-5.192v-75.152c0-4.143-3.358-7.5-7.5-7.5h-39.117c-4.141 0-7.499 3.357-7.499 7.5zm15 7.5h24.117v52.669c-2.944-2.629-7.467-2.531-10.294.295-2.827 2.828-2.925 7.349-.295 10.295h-13.528z"/><path d="m285.342 282.562c9.738-4.79 15.664-14.896 15.094-25.744-.714-13.63-11.951-24.866-25.581-25.58-7.498-.4-14.635 2.231-20.073 7.392-5.362 5.088-8.438 12.245-8.438 19.635 0 4.143 3.358 7.5 7.5 7.5s7.5-3.357 7.5-7.5c0-3.343 1.336-6.452 3.763-8.754 2.423-2.3 5.599-3.461 8.963-3.294 6.067.318 11.068 5.32 11.386 11.387.254 4.848-2.389 9.361-6.734 11.498-7.784 3.827-12.813 12.06-12.813 20.973 0 4.143 3.358 7.5 7.5 7.5s7.5-3.357 7.5-7.5c0-3.24 1.74-6.189 4.433-7.513z"/><path d="m273.409 358.455c43.6 0 79.071-35.472 79.071-79.071 0-4.143-3.358-7.5-7.5-7.5s-7.5 3.357-7.5 7.5c0 35.329-28.742 64.071-64.071 64.071s-64.071-28.742-64.071-64.071 28.742-64.071 64.071-64.071c23.853 0 45.587 13.12 56.72 34.241 1.932 3.664 6.469 5.069 10.132 3.138 3.665-1.932 5.069-6.468 3.138-10.132-13.736-26.059-40.555-42.247-69.99-42.247-43.6 0-79.071 35.472-79.071 79.071s35.471 79.071 79.071 79.071z"/><path d="m273.409 312.57c-4.145 0-7.505 3.36-7.505 7.505s3.36 7.505 7.505 7.505 7.505-3.36 7.505-7.505-3.36-7.505-7.505-7.505z"/></g></g></svg>