<svg height="486pt" viewBox="-37 0 486 486.08047" width="486pt" xmlns="http://www.w3.org/2000/svg"><path d="m345.550781 300.609375c44.078125 16.242187 69.027344 62.902344 58.0625 108.578125-10.96875 45.679688-54.382812 75.921875-101.03125 70.382812-46.648437-5.542968-81.769531-45.113281-81.730469-92.089843 0-2.699219.117188-5.378907.347657-8.019531 4.105469-47.140626 43.089843-83.605469 90.402343-84.550782.609376-.011718 1.230469-.019531 1.847657-.019531 10.957031-.011719 21.824219 1.921875 32.101562 5.71875zm-27.941406 138.851563c0-2.300782-1.867187-4.164063-4.167969-4.160157-2.300781.003907-4.164062 1.867188-4.160156 4.167969 0 2.300781 1.867188 4.164062 4.167969 4.160156 2.300781 0 4.164062-1.867187 4.160156-4.167968zm0 0" fill="#e48e66"/><path d="m345.550781 53.710938v246.898437c-10.277343-3.796875-21.144531-5.730469-32.101562-5.71875-.617188 0-1.238281.007813-1.847657.019531v-270.390625c.003907-3.910156-1.238281-7.71875-3.542968-10.878906l14.203125 5.679687c14.0625 5.625 23.285156 19.242188 23.289062 34.390626zm0 0" fill="#e2d574"/><path d="m311.601562 294.890625v.019531c-47.3125.945313-86.296874 37.410156-90.402343 84.550782h-196.640625c-3.90625.007812-7.71875-1.230469-10.878906-3.53125v-.007813c-4.804688-3.480469-7.644532-9.050781-7.640626-14.980469v-336.421875c0-10.226562 8.292969-18.519531 18.519532-18.519531h268.523437c10.222657.007812 18.511719 8.296875 18.519531 18.519531zm-62.25-187.050781v-46.738282h-181.070312v46.738282zm-5.660156 61.910156c-.007812-8.785156-7.132812-15.902344-15.917968-15.898438-8.785157.003907-15.90625 7.125-15.902344 15.910157 0 8.789062 7.125 15.910156 15.910156 15.910156 4.21875 0 8.269531-1.679687 11.253906-4.664063 2.984375-2.984374 4.660156-7.035156 4.65625-11.257812zm0 63.660156c-.007812-8.785156-7.132812-15.902344-15.917968-15.898437-8.785157.003906-15.90625 7.125-15.902344 15.910156 0 8.785156 7.125 15.90625 15.910156 15.90625 4.21875.003906 8.269531-1.675781 11.253906-4.660156 2.984375-2.988281 4.660156-7.035157 4.65625-11.257813zm0 65.78125c0-8.789062-7.125-15.910156-15.910156-15.910156-8.789062 0-15.910156 7.121094-15.910156 15.910156 0 8.785156 7.121094 15.910156 15.910156 15.910156 8.785156 0 15.910156-7.125 15.910156-15.910156zm-68.960937-129.441406c-.003907-8.789062-7.128907-15.914062-15.921875-15.910156-8.789063.003906-15.910156 7.128906-15.910156 15.921875.003906 8.789062 7.132812 15.910156 15.921874 15.910156 4.222657 0 8.269532-1.679687 11.253907-4.664063 2.984375-2.984374 4.660156-7.035156 4.65625-11.257812zm0 63.660156c-.003907-8.789062-7.128907-15.914062-15.921875-15.910156-8.789063.003906-15.910156 7.128906-15.910156 15.921875.003906 8.789063 7.132812 15.910156 15.921874 15.90625 4.222657.003906 8.269532-1.675781 11.253907-4.660156 2.984375-2.988281 4.660156-7.035157 4.65625-11.257813zm0 65.78125c.003906-8.792968-7.121094-15.921875-15.914063-15.921875-8.789062 0-15.917968 7.125-15.917968 15.917969.003906 8.789062 7.132812 15.914062 15.921874 15.914062 8.789063 0 15.914063-7.125 15.910157-15.910156zm-68.960938-129.441406c-.003906-8.789062-7.128906-15.914062-15.917969-15.910156-8.789062.003906-15.914062 7.128906-15.910156 15.921875 0 8.789062 7.128906 15.910156 15.917969 15.910156 8.792969-.003906 15.914063-7.132813 15.910156-15.921875zm0 63.660156c-.003906-8.789062-7.128906-15.914062-15.917969-15.910156-8.789062.003906-15.914062 7.128906-15.910156 15.921875 0 8.789063 7.128906 15.910156 15.917969 15.90625 8.792969 0 15.914063-7.128906 15.910156-15.917969zm0 65.78125c.003907-8.792968-7.121093-15.921875-15.914062-15.921875-8.789063 0-15.917969 7.125-15.914063 15.917969 0 8.789062 7.128906 15.914062 15.917969 15.914062 8.789063-.003906 15.910156-7.125 15.910156-15.910156zm0 0" fill="#f8ec7d"/><path d="m249.351562 61.101562v46.738282h-181.070312v-46.738282zm-20.160156 23.367188c0-2.046875-1.65625-3.707031-3.699218-3.707031-2.046876-.003907-3.710938 1.652343-3.710938 3.699219-.003906 2.046874 1.652344 3.707031 3.699219 3.710937 2.046875 0 3.707031-1.65625 3.710937-3.703125zm-33.339844 0c0-2.042969-1.65625-3.699219-3.703124-3.699219-2.042969 0-3.699219 1.65625-3.699219 3.699219s1.65625 3.703125 3.699219 3.703125c2.046874 0 3.703124-1.660156 3.703124-3.703125zm-33.332031 0c.003907-2.046875-1.65625-3.707031-3.703125-3.707031-2.046875-.003907-3.707031 1.65625-3.707031 3.703125 0 2.050781 1.664063 3.707031 3.710937 3.707031 2.042969 0 3.699219-1.660156 3.699219-3.703125zm-33.328125 0c0-2.046875-1.65625-3.707031-3.699218-3.707031-2.046876-.003907-3.710938 1.652343-3.710938 3.699219-.003906 2.046874 1.652344 3.707031 3.699219 3.710937 2.046875 0 3.707031-1.65625 3.710937-3.703125zm-33.339844 0c0-2.042969-1.65625-3.699219-3.703124-3.699219-2.042969 0-3.699219 1.65625-3.699219 3.699219s1.65625 3.703125 3.699219 3.703125c2.046874 0 3.703124-1.660156 3.703124-3.703125zm0 0" fill="#6fe3ff"/><path d="m227.78125 153.839844c8.789062-.003906 15.917969 7.121094 15.917969 15.914062 0 8.789063-7.125 15.917969-15.914063 15.917969-8.792968-.003906-15.917968-7.132813-15.914062-15.921875-.003906-8.789062 7.121094-15.914062 15.910156-15.910156zm0 0" fill="#6fe3ff"/><path d="m227.78125 217.5c8.789062-.003906 15.917969 7.121094 15.917969 15.914062 0 8.789063-7.125 15.917969-15.914063 15.914063-8.792968 0-15.917968-7.128906-15.914062-15.917969-.003906-8.789062 7.121094-15.914062 15.910156-15.910156zm0 0" fill="#6fe3ff"/><path d="m243.691406 299.191406c0 8.785156-7.125 15.910156-15.910156 15.910156-8.789062 0-15.910156-7.125-15.910156-15.910156 0-8.789062 7.121094-15.910156 15.910156-15.910156 8.785156 0 15.910156 7.121094 15.910156 15.910156zm0 0" fill="#6fe3ff"/><path d="m224.53125 413.410156h-170.78125c-15.144531 0-28.765625-9.21875-34.390625-23.28125l-5.679687-14.199218c3.160156 2.300781 6.972656 3.539062 10.878906 3.53125h196.640625c-.230469 2.640624-.347657 5.320312-.347657 8.019531-.007812 8.773437 1.234376 17.503906 3.679688 25.929687zm0 0" fill="#e2d574"/><path d="m158.820312 153.839844c8.789063.003906 15.914063 7.128906 15.910157 15.921875-.003907 8.789062-7.128907 15.910156-15.921875 15.910156-8.789063-.003906-15.910156-7.132813-15.910156-15.921875 0-4.222656 1.679687-8.269531 4.664062-11.253906s7.035156-4.660156 11.257812-4.65625zm0 0" fill="#6fe3ff"/><path d="m158.820312 217.5c8.789063.003906 15.914063 7.128906 15.910157 15.921875-.003907 8.789063-7.128907 15.910156-15.921875 15.90625-8.789063 0-15.910156-7.128906-15.910156-15.917969 0-4.222656 1.679687-8.269531 4.664062-11.253906s7.035156-4.660156 11.257812-4.65625zm0 0" fill="#6fe3ff"/><path d="m158.820312 283.28125c8.785157.003906 15.902344 7.128906 15.898438 15.914062-.003906 8.785157-7.125 15.90625-15.910156 15.90625-8.789063-.003906-15.910156-7.125-15.910156-15.910156 0-4.222656 1.679687-8.273437 4.664062-11.257812s7.035156-4.65625 11.257812-4.652344zm0 0" fill="#6fe3ff"/><path d="m89.859375 153.839844c8.789063.003906 15.914063 7.128906 15.910156 15.921875-.003906 8.789062-7.128906 15.910156-15.917969 15.910156-8.789062-.003906-15.914062-7.132813-15.910156-15.921875 0-8.789062 7.128906-15.914062 15.917969-15.910156zm0 0" fill="#6fe3ff"/><path d="m89.859375 217.5c8.789063.003906 15.914063 7.128906 15.910156 15.921875-.003906 8.789063-7.128906 15.910156-15.917969 15.90625-8.789062 0-15.914062-7.128906-15.910156-15.917969 0-8.789062 7.128906-15.914062 15.917969-15.910156zm0 0" fill="#6fe3ff"/><path d="m89.859375 283.28125c8.785156.003906 15.90625 7.128906 15.902344 15.914062-.003907 8.785157-7.128907 15.90625-15.914063 15.90625-8.785156-.003906-15.90625-7.125-15.90625-15.910156 0-8.792968 7.128906-15.914062 15.917969-15.910156zm0 0" fill="#6fe3ff"/><g fill="#63316d"><path d="m324.488281 13.75-12.730469-5.09375c-4.660156-5.480469-11.484374-8.640625-18.675781-8.65625h-268.523437c-13.535156.015625-24.5039065 10.984375-24.5195315 24.519531v336.421875c.015625 7.1875 3.1757815 14.011719 8.6523435 18.671875l5.101563 12.746094c6.492187 16.375 22.34375 27.105469 39.957031 27.050781h166.402344c6.382812 18.484375 18.074218 34.675782 33.605468 46.554688 17.132813 13.109375 38.121094 20.183594 59.691407 20.113281 46.964843 0 87.410156-33.125 96.664062-79.167969 9.253907-46.042968-15.25-92.222656-58.5625-110.371094v-242.828124c.054688-17.617188-10.683593-33.472657-27.0625-39.960938zm15.0625 39.960938v238.679687c-7.164062-1.964844-14.527343-3.109375-21.949219-3.410156v-264.460938c0-.199219-.019531-.40625-.023437-.613281l2.453125.984375c11.8125 4.679687 19.558594 16.113281 19.519531 28.820313zm-327.511719-29.191407c.007813-6.910156 5.609376-12.511719 12.519532-12.519531h268.523437c4.007813.007812 7.769531 1.929688 10.128907 5.171875 1.558593 2.132813 2.394531 4.707031 2.390624 7.347656v264.699219c-45.972656 3.546875-83.296874 38.585938-89.742187 84.242188h-191.300781c-2.609375.007812-5.152344-.808594-7.273438-2.332032-.027344-.019531-.054687-.042968-.082031-.066406-3.238281-2.355469-5.15625-6.117188-5.164063-10.121094zm12.890626 363.382813-.988282-2.460938c.203125 0 .40625.023438.613282.023438h190.339843c-.015625.671875-.042969 1.347656-.042969 2.019531 0 6.695313.683594 13.371094 2.03125 19.929687h-163.132812c-12.703125.039063-24.136719-7.703124-28.820312-19.511718zm375.109374-.421875c.335938 31.160156-16.09375 60.09375-43.027343 75.773437-26.929688 15.675782-60.203125 15.675782-87.136719 0-26.929688-15.679687-43.359375-44.613281-43.023438-75.773437 0-2.484375.109376-5 .328126-7.507813 3.722656-44.132812 40.238281-78.289062 84.523437-79.0625.574219-.011718 1.160156-.019531 1.746094-.019531 10.246093-.015625 20.410156 1.796875 30.019531 5.347656 33.9375 12.652344 56.480469 45.019531 56.570312 81.242188zm0 0"/><path d="m89.859375 147.839844c-12.105469-.003906-21.917969 9.808594-21.917969 21.914062-.003906 12.105469 9.8125 21.917969 21.914063 21.917969 12.105469-.003906 21.917969-9.816406 21.914062-21.921875-.015625-12.09375-9.816406-21.894531-21.910156-21.910156zm0 31.832031c-5.476563 0-9.917969-4.4375-9.917969-9.910156-.003906-5.476563 4.433594-9.917969 9.910156-9.921875 5.472657-.003906 9.914063 4.433594 9.917969 9.910156-.003906 5.472656-4.4375 9.910156-9.910156 9.921875zm0 0"/><path d="m158.820312 191.671875c12.101563-.003906 21.910157-9.816406 21.910157-21.917969 0-12.101562-9.8125-21.914062-21.914063-21.914062-12.101562 0-21.914062 9.808594-21.917968 21.910156.011718 12.101562 9.820312 21.910156 21.921874 21.921875zm0-31.832031c5.476563.003906 9.914063 4.445312 9.910157 9.921875-.003907 5.472656-4.445313 9.910156-9.921875 9.910156-5.472656-.003906-9.910156-4.445313-9.910156-9.921875.007812-5.472656 4.449218-9.910156 9.921874-9.910156zm0 0"/><path d="m227.78125 147.839844c-12.105469-.003906-21.921875 9.808594-21.921875 21.914062 0 12.105469 9.8125 21.917969 21.917969 21.917969 12.105468-.003906 21.914062-9.816406 21.914062-21.921875-.015625-12.09375-9.816406-21.894531-21.910156-21.910156zm0 31.832031c-5.476562 0-9.917969-4.4375-9.921875-9.910156 0-5.476563 4.433594-9.917969 9.910156-9.921875 5.476563-.003906 9.917969 4.433594 9.921875 9.910156-.003906 5.472656-4.4375 9.910156-9.910156 9.921875zm0 0"/><path d="m89.859375 211.5c-12.105469-.003906-21.917969 9.808594-21.917969 21.914062-.003906 12.105469 9.8125 21.917969 21.914063 21.914063 12.105469 0 21.917969-9.8125 21.914062-21.917969-.015625-12.09375-9.816406-21.894531-21.910156-21.910156zm0 31.828125c-5.476563.003906-9.917969-4.433594-9.917969-9.90625-.003906-5.476563 4.433594-9.917969 9.910156-9.921875 5.472657-.003906 9.914063 4.433594 9.917969 9.910156-.003906 5.472656-4.4375 9.910156-9.910156 9.917969zm0 0"/><path d="m158.820312 255.328125c12.101563 0 21.910157-9.8125 21.910157-21.914063 0-12.101562-9.8125-21.914062-21.914063-21.914062-12.101562 0-21.914062 9.808594-21.917968 21.910156.011718 12.101563 9.820312 21.910156 21.921874 21.917969zm0-31.828125c5.476563.003906 9.914063 4.445312 9.910157 9.921875-.003907 5.472656-4.445313 9.910156-9.921875 9.90625-5.472656 0-9.910156-4.441406-9.910156-9.917969.007812-5.472656 4.449218-9.910156 9.921874-9.910156zm0 0"/><path d="m227.78125 211.5c-12.105469-.003906-21.921875 9.808594-21.921875 21.914062 0 12.105469 9.8125 21.917969 21.917969 21.914063 12.105468 0 21.914062-9.8125 21.914062-21.917969-.015625-12.09375-9.816406-21.894531-21.910156-21.910156zm0 31.828125c-5.476562.003906-9.917969-4.433594-9.921875-9.90625 0-5.476563 4.433594-9.917969 9.910156-9.921875 5.476563-.003906 9.917969 4.433594 9.921875 9.910156-.003906 5.472656-4.4375 9.910156-9.910156 9.917969zm0 0"/><path d="m89.859375 277.28125c-12.101563 0-21.910156 9.808594-21.910156 21.910156 0 12.097656 9.808593 21.910156 21.910156 21.910156s21.910156-9.8125 21.910156-21.910156c-.015625-12.09375-9.816406-21.894531-21.910156-21.910156zm0 31.820312c-5.472656 0-9.910156-4.4375-9.910156-9.910156s4.4375-9.910156 9.910156-9.910156 9.910156 4.4375 9.910156 9.910156c-.007812 5.46875-4.441406 9.898438-9.910156 9.910156zm0 0"/><path d="m158.820312 321.101562c12.097657-.007812 21.902344-9.820312 21.898438-21.917968s-9.8125-21.90625-21.910156-21.902344c-12.101563 0-21.910156 9.808594-21.910156 21.910156.015624 12.097656 9.824218 21.898438 21.921874 21.910156zm0-31.820312c5.472657.003906 9.902344 4.445312 9.898438 9.914062-.003906 5.472657-4.441406 9.90625-9.910156 9.90625-5.472656-.003906-9.910156-4.441406-9.910156-9.910156.007812-5.476562 4.449218-9.910156 9.921874-9.910156zm0 0"/><path d="m227.78125 277.28125c-12.101562 0-21.910156 9.808594-21.910156 21.910156 0 12.097656 9.808594 21.910156 21.910156 21.910156 12.097656 0 21.910156-9.8125 21.910156-21.910156-.015625-12.097656-9.816406-21.898437-21.910156-21.910156zm0 31.820312c-5.472656 0-9.910156-4.4375-9.910156-9.910156s4.4375-9.910156 9.910156-9.910156 9.910156 4.4375 9.910156 9.910156c-.007812 5.46875-4.441406 9.902344-9.910156 9.910156zm0 0"/><path d="m175.808594 349.058594h-33.988282c-3.3125 0-6 2.6875-6 6 0 3.316406 2.6875 6 6 6h33.988282c3.316406 0 6-2.683594 6-6 0-3.3125-2.683594-6-6-6zm0 0"/><path d="m68.28125 113.839844h181.070312c3.3125 0 6-2.6875 6-6v-46.738282c0-3.316406-2.6875-6-6-6h-181.070312c-3.316406 0-6 2.683594-6 6v46.738282c0 3.3125 2.683594 6 6 6zm6-46.738282h169.070312v34.738282h-169.070312zm0 0"/><path d="m158.820312 74.769531c-5.355468 0-9.699218 4.34375-9.699218 9.699219 0 5.359375 4.34375 9.703125 9.699218 9.703125 5.355469 0 9.699219-4.34375 9.699219-9.703125-.007812-5.351562-4.347656-9.691406-9.699219-9.699219zm0 12c-.929687.003907-1.773437-.554687-2.132812-1.414062s-.164062-1.847657.492188-2.507813 1.648437-.859375 2.507812-.503906 1.421875 1.195312 1.421875 2.125c0 1.269531-1.023437 2.296875-2.289063 2.300781zm0 0"/><path d="m192.148438 74.769531c-5.355469 0-9.699219 4.34375-9.699219 9.699219 0 5.359375 4.34375 9.703125 9.699219 9.703125 5.359374 0 9.703124-4.34375 9.703124-9.703125-.007812-5.351562-4.347656-9.691406-9.703124-9.699219zm0 12c-1.269532 0-2.296876-1.027343-2.296876-2.300781 0-1.269531 1.027344-2.296875 2.296876-2.296875 1.273437 0 2.300781 1.027344 2.300781 2.296875 0 1.273438-1.027344 2.300781-2.300781 2.300781zm0 0"/><path d="m225.480469 74.769531c-5.355469.007813-9.695313 4.351563-9.691407 9.707031.003907 5.355469 4.347657 9.695313 9.703126 9.695313 5.355468-.003906 9.699218-4.347656 9.699218-9.703125-.007812-5.355469-4.351562-9.699219-9.710937-9.699219zm0 12c-1.269531 0-2.300781-1.027343-2.300781-2.300781 0-1.269531 1.03125-2.296875 2.300781-2.296875s2.300781 1.027344 2.300781 2.296875c0 1.273438-1.03125 2.300781-2.300781 2.300781zm0 0"/><path d="m92.148438 74.769531c-5.355469 0-9.699219 4.34375-9.699219 9.699219 0 5.359375 4.34375 9.703125 9.699219 9.703125 5.359374 0 9.703124-4.34375 9.703124-9.703125-.007812-5.351562-4.347656-9.691406-9.703124-9.699219zm0 12c-1.269532 0-2.296876-1.027343-2.296876-2.300781 0-1.269531 1.027344-2.296875 2.296876-2.296875 1.273437 0 2.300781 1.027344 2.300781 2.296875 0 1.273438-1.027344 2.300781-2.300781 2.300781zm0 0"/><path d="m125.480469 74.769531c-5.355469.007813-9.695313 4.351563-9.691407 9.707031.003907 5.355469 4.347657 9.695313 9.703126 9.695313 5.355468-.003906 9.699218-4.347656 9.699218-9.703125-.007812-5.355469-4.351562-9.699219-9.710937-9.699219zm0 12c-1.269531 0-2.300781-1.027343-2.300781-2.300781 0-1.269531 1.03125-2.296875 2.300781-2.296875s2.300781 1.027344 2.300781 2.296875c0 1.273438-1.03125 2.300781-2.300781 2.300781zm0 0"/><path d="m315.628906 325.414062c-8.59375-.636718-17.058594 2.363282-23.332031 8.269532-6.269531 5.867187-9.832031 14.070312-9.847656 22.65625 0 3.3125 2.6875 6 6 6 3.316406 0 6-2.6875 6-6 .003906-5.273438 2.195312-10.3125 6.054687-13.90625 3.863282-3.59375 9.042969-5.421875 14.304688-5.046875 8.324218.59375 15.289062 6.550781 17.164062 14.683593 1.871094 8.132813-1.78125 16.539063-9.003906 20.714844-9.679688 5.746094-15.585938 16.191406-15.519531 27.445313v10.859375c0 3.3125 2.6875 6 6 6 3.316406 0 6-2.6875 6-6v-10.859375c-.070313-6.976563 3.558593-13.46875 9.542969-17.058594 11.785156-6.828125 17.734374-20.546875 14.664062-33.816406s-14.441406-22.984375-28.027344-23.941407zm0 0"/><path d="m313.449219 429.289062c-5.617188-.003906-10.175781 4.546876-10.179688 10.164063-.003906 5.617187 4.550781 10.175781 10.167969 10.175781 5.617188.003906 10.171875-4.550781 10.171875-10.167968-.003906-5.609376-4.546875-10.160157-10.160156-10.171876zm0 12c-1.007813 0-1.828125-.820312-1.828125-1.828124 0-1.011719.820312-1.832032 1.828125-1.832032 1.011719 0 1.832031.820313 1.832031 1.832032-.003906 1.007812-.820312 1.824218-1.832031 1.828124zm0 0"/></g></svg>