<svg height="682.66669pt" viewBox="-21 -21 682.66669 682.66669" width="682.66669pt" xmlns="http://www.w3.org/2000/svg"><path d="m480 0v640h-480v-508.199219l131.800781-131.800781zm0 0" fill="#b3f4ef"/><path d="m80 200h320v120h-320zm0 0" fill="#ffe163"/><path d="m480 280v360h-119.800781c-48.597657-36.402344-80.199219-94.601562-80.199219-160 0-110.199219 89.800781-200 200-200zm0 0" fill="#77e5e0"/><path d="m132 0h-.28125l-131.71875 131.71875v.28125h132zm0 0" fill="#77e5e0"/><path d="m260 40h40v40h-40zm0 0" fill="#fff"/><path d="m180 40h40v40h-40zm0 0" fill="#fff"/><path d="m640 480c0 88.363281-71.636719 160-160 160s-160-71.636719-160-160 71.636719-160 160-160 160 71.636719 160 160zm0 0" fill="#e76e54"/><g fill="#fff"><path d="m500 560h-40v-40h40zm0-80h-40v-80h40zm0 0"/><path d="m80 360h200v40h-200zm0 0"/><path d="m80 440h200v40h-200zm0 0"/></g></svg>