<?xml version="1.0" encoding="iso-8859-1"?>
<!-- Generator: Adobe Illustrator 19.0.0, SVG Export Plug-In . SVG Version: 6.00 Build 0)  -->
<svg version="1.1" id="Capa_1" xmlns="http://www.w3.org/2000/svg" xmlns:xlink="http://www.w3.org/1999/xlink" x="0px" y="0px"
	 viewBox="0 0 511.998 511.998" style="enable-background:new 0 0 511.998 511.998;" xml:space="preserve">
<g>
	<path style="fill:#F7B081;" d="M352.256,326.312l24.815-76.204c2.077-6.38,8.5-10.288,15.12-9.202l0,0
		c8.143,1.336,13.225,9.56,10.779,17.44l-8.214,26.453L352.256,326.312z"/>
	<path style="fill:#F7B081;" d="M403.481,276.276c5.763-5.63,14.999-5.521,20.629,0.242l0,0l11.954-36.961
		c2.307-7.135-1.875-14.739-9.135-16.61l0,0c-6.723-1.733-13.622,2.114-15.682,8.744l-16.491,53.107l0,0L403.481,276.276z"/>
</g>
<path style="fill:#DB9975;" d="M424.109,276.518L424.109,276.518l11.954-36.961c2.167-6.7-1.39-13.812-7.844-16.204l-15.251,48.803
	C416.991,271.962,421.074,273.411,424.109,276.518z"/>
<path style="fill:#F7B081;" d="M424.109,276.518L424.109,276.518c5.136,5.257,5.558,13.514,0.987,19.268l-56.907,71.626
	l30.814-23.616c28.762-22.043,49.834-52.6,60.214-87.319l11.567-38.691c2.254-7.54-2.564-15.36-10.311-16.738
	c-6.478-1.152-12.812,2.654-14.837,8.914L424.109,276.518L424.109,276.518L424.109,276.518z"/>
<path style="fill:#FFC89F;" d="M491.658,193.337c-7.322-1.106-14.367,3.252-16.643,10.298l-15.798,52.843
	c-10.38,34.719-31.452,65.276-60.213,87.319l-30.814,23.615l56.907-71.627c4.571-5.754,4.149-14.011-0.987-19.268l0,0
	c-5.63-5.763-14.866-5.872-20.629-0.242l-51.225,50.036c0,0-28.398,10.433-47.667,37.808s-22.597,61.977-22.597,61.977v55.578
	v22.191h86.198v-57.139l57.826-47.221c31.167-25.45,42.339-71.601,54.189-110.054l23.641-76.717
	C506.565,203.903,500.795,194.718,491.658,193.337z"/>
<g>
	<path style="fill:#FFB98A;" d="M422.4,275.042c-0.341-0.255-0.691-0.497-1.049-0.718c-0.139-0.086-0.277-0.173-0.418-0.253
		c-0.446-0.255-0.9-0.49-1.366-0.695c-0.043-0.019-0.084-0.042-0.128-0.061c-0.546-0.233-1.102-0.432-1.668-0.596
		c-0.042-0.012-0.084-0.02-0.125-0.032c-0.523-0.147-1.051-0.262-1.584-0.35c-0.069-0.011-0.138-0.022-0.208-0.032
		c-1.763-0.262-3.565-0.209-5.313,0.174c3.387,5.17,3.191,12.059-0.782,17.06l-43.38,54.602c-5.588,7.033-4.8,17.187,1.808,23.273
		l56.907-71.627c4.572-5.754,4.149-14.011-0.986-19.268l0,0c-0.415-0.425-0.855-0.809-1.306-1.172
		C422.672,275.239,422.535,275.142,422.4,275.042z"/>
	<path style="fill:#FFB98A;" d="M491.658,193.337c-1.762-0.266-3.506-0.208-5.173,0.119c2.521,3.653,3.456,8.385,2.024,13.031
		l-23.641,76.717c-11.85,38.453-23.022,81.611-54.189,107.061l-60.819,47.22v66.379h18.327v-57.139l57.826-47.221
		c31.167-25.45,42.339-71.601,54.189-110.054l23.641-76.717C506.565,203.903,500.795,194.718,491.658,193.337z"/>
</g>
<g>
	<path style="fill:#DB9975;" d="M394.756,284.797l8.214-26.453c2.243-7.224-1.852-14.722-8.821-16.952l-19.79,63.327
		L394.756,284.797z"/>
	<path style="fill:#DB9975;" d="M470.784,217.786c1.91-6.392-1.271-12.969-7.001-15.669l-35.861,113.563
		c14.125-17.395,24.803-37.485,31.295-59.203L470.784,217.786z"/>
	<path style="fill:#DB9975;" d="M159.741,326.312l-24.815-76.204c-2.077-6.38-8.5-10.288-15.121-9.202l0,0
		c-8.143,1.336-13.225,9.56-10.779,17.44l8.214,26.453L159.741,326.312z"/>
	<path style="fill:#DB9975;" d="M108.516,276.276c-5.763-5.63-14.999-5.521-20.629,0.242l0,0l-11.954-36.961
		c-2.307-7.135,1.875-14.739,9.135-16.61l0,0c6.723-1.733,13.622,2.114,15.682,8.744l16.491,53.107l0,0L108.516,276.276z"/>
	<path style="fill:#DB9975;" d="M87.887,276.518L87.887,276.518c-5.136,5.257-5.558,13.514-0.987,19.268l56.907,71.627
		l-30.814-23.616c-28.762-22.043-49.834-52.6-60.214-87.319l-11.567-38.691c-2.254-7.54,2.564-15.36,10.311-16.738
		c6.478-1.152,12.812,2.654,14.837,8.914L87.887,276.518L87.887,276.518L87.887,276.518z"/>
</g>
<path style="fill:#FFC89F;" d="M20.339,193.337c7.322-1.106,14.367,3.252,16.643,10.298l15.798,52.843
	c10.38,34.719,31.452,65.276,60.213,87.319l30.814,23.616l-56.907-71.628c-4.571-5.754-4.149-14.011,0.987-19.268l0,0
	c5.63-5.763,14.865-5.872,20.629-0.242l51.225,50.036c0,0,28.399,10.433,47.667,37.808s22.597,61.977,22.597,61.977v55.578v22.191
	h-86.197v-57.139l-57.826-47.221c-31.167-25.45-42.339-71.601-54.189-110.054L8.153,212.735
	C5.431,203.903,11.202,194.718,20.339,193.337z"/>
<path style="fill:#FFB98A;" d="M207.408,364.12c-19.269-27.375-47.667-37.808-47.667-37.808l-51.225-50.036
	c-5.763-5.63-14.999-5.521-20.629,0.242l0,0c-1.246,1.275-2.209,2.729-2.895,4.279c2.108,0.666,4.1,1.809,5.789,3.46l51.225,50.036
	c0,0,28.399,10.433,47.667,37.808c19.268,27.375,22.597,61.977,22.597,61.977v55.578v14.21h17.735v-22.191v-55.578
	C230.006,426.096,226.677,391.493,207.408,364.12z"/>
<g>
	<path style="fill:#F7B081;" d="M135.461,302.596l22.213,21.698h1.409l-24.158-74.186c-2.077-6.38-8.5-10.288-15.121-9.202l0,0
		c-0.376,0.062-0.739,0.154-1.102,0.243L135.461,302.596z"/>
	<path style="fill:#F7B081;" d="M99.494,272.173c3.277,0.262,6.487,1.626,9.022,4.103l8.724,8.522l0,0L100.75,231.69
		c-2.029-6.533-8.758-10.353-15.387-8.805L99.494,272.173z"/>
	<path style="fill:#F7B081;" d="M143.808,367.412l-56.907-71.627c-4.572-5.754-4.149-14.011,0.986-19.268l0,0L66.36,209.961
		c-2.024-6.26-8.359-10.066-14.837-8.914c-0.425,0.076-0.838,0.179-1.245,0.292l33.784,114.325
		c8.459,10.42,18.155,19.874,28.931,28.132L143.808,367.412z"/>
</g>
<circle style="fill:#FFD039;" cx="254.939" cy="144.694" r="136.564"/>
<path style="fill:#FFAE47;" d="M254.94,8.134c-4.205,0-8.362,0.201-12.47,0.573c69.575,6.3,124.091,64.773,124.091,135.989
	S312.045,274.385,242.47,280.685c4.108,0.372,8.265,0.573,12.47,0.573c75.421,0,136.561-61.141,136.561-136.562
	S330.361,8.134,254.94,8.134z"/>
<path style="fill:#00B76C;" d="M235.432,202.826c-4.549,0-8.913-1.808-12.13-5.024l-39.017-39.017
	c-6.699-6.699-6.699-17.561,0-24.26c6.699-6.699,17.56-6.699,24.26,0l26.887,26.887l65.903-65.903
	c6.699-6.699,17.56-6.7,24.26-0.001c6.699,6.699,6.699,17.561,0,24.26L247.562,197.8
	C244.346,201.019,239.982,202.826,235.432,202.826z"/>
<path d="M235.433,210.308c6.581,0,12.768-2.563,17.42-7.216l78.033-78.032c9.606-9.606,9.606-25.237,0-34.843
	c-9.605-9.604-25.235-9.603-34.841,0.001l-60.612,60.612l-21.596-21.596c-9.604-9.603-25.234-9.605-34.841,0
	c-4.653,4.654-7.216,10.84-7.216,17.421s2.563,12.768,7.216,17.421l39.016,39.015C222.665,207.746,228.851,210.308,235.433,210.308z
	 M189.577,139.817c1.885-1.887,4.362-2.828,6.839-2.828c2.476,0,4.954,0.942,6.839,2.828l26.887,26.887
	c2.922,2.921,7.66,2.921,10.581,0l65.903-65.903c3.772-3.77,9.907-3.771,13.678-0.001c3.771,3.771,3.771,9.907,0,13.678
	l-78.034,78.033c-1.827,1.827-4.255,2.833-6.838,2.833c-2.584,0-5.012-1.006-6.839-2.833l-39.017-39.016
	C185.806,149.723,185.806,143.588,189.577,139.817z"/>
<path d="M398.983,144.695c0-79.425-64.618-144.044-144.044-144.044c-35.561,0-69.71,13.068-96.157,36.794
	c-3.076,2.76-3.332,7.49-0.573,10.567c2.76,3.075,7.49,3.331,10.566,0.573c23.697-21.261,54.298-32.969,86.165-32.969
	c71.175,0,129.08,57.905,129.08,129.08s-57.905,129.08-129.08,129.08c-71.174,0-129.079-57.905-129.079-129.08
	c0-27.111,8.309-53.054,24.029-75.023c2.404-3.36,1.629-8.035-1.731-10.439c-3.36-2.404-8.034-1.628-10.439,1.731
	c-17.547,24.524-26.823,53.478-26.823,83.731c0,79.425,64.618,144.044,144.043,144.044
	C334.366,288.739,398.983,224.121,398.983,144.695z"/>
<path d="M508.534,196.261c-3.503-5.576-9.246-9.338-15.756-10.323c-9.393-1.417-18.377,3.108-22.936,11.046
	c-2.396-1.643-5.138-2.782-8.058-3.301c-10.107-1.8-20.109,4.211-23.266,13.978l-3.507,10.842c-1.891-1.259-3.983-2.226-6.213-2.801
	c-10.605-2.736-21.449,3.315-24.695,13.772l-2.297,7.396c-2.497-1.691-5.356-2.847-8.403-3.347
	c-10.341-1.694-20.202,4.307-23.445,14.27l-23.753,72.947c-5.66,2.533-17.435,8.518-29.548,19.043
	c-3.119,2.712-3.45,7.436-0.739,10.556c2.711,3.118,7.435,3.448,10.556,0.739c14.294-12.422,28.241-17.694,28.364-17.741
	c0.03-0.011,0.058-0.026,0.088-0.038c0.156-0.059,0.307-0.127,0.459-0.197c0.078-0.036,0.157-0.068,0.232-0.107
	c0.163-0.082,0.32-0.174,0.477-0.267c0.062-0.037,0.125-0.069,0.185-0.108c0.17-0.108,0.333-0.227,0.495-0.35
	c0.043-0.033,0.089-0.061,0.131-0.095c0.201-0.16,0.396-0.329,0.583-0.511l18.648-18.215l32.577-31.821
	c1.357-1.327,3.147-2.033,5.048-2.022c0.237,0.003,0.473,0.017,0.705,0.043c1.629,0.18,3.134,0.91,4.295,2.099
	c2.495,2.553,2.701,6.588,0.48,9.385l-56.907,71.627c-2.35,2.958-2.127,7.204,0.522,9.898c0.174,0.177,0.356,0.342,0.543,0.499
	c0.064,0.054,0.132,0.1,0.197,0.152c0.126,0.098,0.251,0.197,0.382,0.285c0.081,0.055,0.164,0.104,0.246,0.155
	c0.121,0.076,0.24,0.151,0.364,0.218c0.09,0.05,0.182,0.094,0.273,0.14c0.121,0.06,0.241,0.119,0.364,0.172
	c0.096,0.042,0.194,0.08,0.291,0.117c0.122,0.047,0.244,0.091,0.369,0.131c0.101,0.033,0.201,0.063,0.302,0.091
	c0.125,0.035,0.25,0.066,0.377,0.094c0.102,0.023,0.204,0.045,0.306,0.063c0.129,0.023,0.257,0.04,0.387,0.057
	c0.102,0.013,0.204,0.027,0.306,0.035c0.134,0.011,0.266,0.015,0.4,0.019c0.077,0.003,0.153,0.011,0.228,0.011
	c0.016,0,0.033-0.004,0.049-0.004c0.348-0.002,0.695-0.033,1.04-0.084c0.062-0.009,0.124-0.018,0.186-0.029
	c0.34-0.059,0.677-0.142,1.01-0.247c0.06-0.019,0.118-0.04,0.178-0.061c0.336-0.117,0.666-0.255,0.988-0.422
	c0.042-0.022,0.081-0.047,0.122-0.069c0.336-0.184,0.665-0.388,0.978-0.628l30.814-23.617
	c19.822-15.192,35.992-33.983,47.848-55.411c1.694-3.061,3.299-6.176,4.814-9.342c1.011-2.111,1.981-4.244,2.911-6.399
	c2.789-6.466,5.215-13.128,7.258-19.963l15.771-52.751c1.177-3.536,4.69-5.703,8.384-5.136c2.232,0.337,4.121,1.575,5.322,3.487
	c1.201,1.911,1.495,4.152,0.831,6.309l-23.641,76.717c-1.217,3.952-2.428,7.984-3.653,12.066
	c-10.271,34.217-21.915,73-48.117,94.396l-57.826,47.221c-1.741,1.422-2.749,3.55-2.749,5.796v49.656h-71.233v-69.88
	c0.371-3.233,3.832-30.183,18.072-53.274c2.169-3.517,1.076-8.127-2.441-10.295c-3.518-2.17-8.127-1.075-10.295,2.441
	c-16.975,27.526-20.138,58.695-20.265,60.008c-0.023,0.237-0.035,0.477-0.035,0.716v77.768c0,4.133,3.35,7.482,7.482,7.482h86.197
	c4.132,0,7.482-3.349,7.482-7.482v-53.589l55.076-44.976c29.753-24.296,42.095-65.41,52.984-101.684
	c1.215-4.048,2.415-8.045,3.622-11.961l23.641-76.717C512.933,208.644,512.036,201.838,508.534,196.261z M425.06,230.192
	c1.493,0.385,2.725,1.342,3.469,2.693c0.743,1.351,0.891,2.903,0.416,4.371l-9.136,28.246c-0.495-0.143-0.996-0.265-1.501-0.372
	c-0.065-0.014-0.131-0.022-0.196-0.035c-0.568-0.116-1.143-0.204-1.723-0.275c-0.169-0.021-0.338-0.04-0.508-0.057
	c-0.644-0.064-1.292-0.11-1.946-0.118c-0.001,0-0.001,0-0.001,0c-0.045-0.001-0.09,0-0.134-0.001c-0.044,0-0.089,0-0.133,0l0,0l0,0
	c0,0,0,0-0.001,0c-0.657,0-1.31,0.038-1.957,0.094c-0.106,0.009-0.212,0.016-0.317,0.027c-0.621,0.063-1.237,0.155-1.847,0.268
	c-0.11,0.021-0.217,0.043-0.327,0.066c-0.181,0.037-0.363,0.068-0.543,0.109l1.442-4.641c0.001-0.002,0.001-0.005,0.002-0.007
	l8.274-26.648C419.269,231.087,422.199,229.452,425.06,230.192z M384.185,252.425c0.834-2.561,3.176-4.219,5.785-4.219
	c0.333,0,0.67,0.027,1.01,0.083c2.388,0.392,3.66,1.932,4.207,2.816c0.546,0.883,1.355,2.711,0.637,5.021l-7.652,24.642
	l-19.383,18.933L384.185,252.425z M448.646,264.518c-3.714,10.032-8.355,19.598-13.859,28.609c0.007-0.022,0.011-0.045,0.018-0.067
	c0.121-0.405,0.227-0.812,0.325-1.221c0.034-0.145,0.063-0.29,0.095-0.435c0.064-0.296,0.123-0.593,0.175-0.891
	c0.028-0.16,0.053-0.319,0.078-0.479c0.045-0.3,0.083-0.601,0.116-0.902c0.016-0.145,0.034-0.289,0.047-0.434
	c0.037-0.42,0.065-0.84,0.079-1.26c0.001-0.027,0.003-0.055,0.004-0.083c0.012-0.435,0.009-0.87-0.004-1.305
	c-0.004-0.144-0.014-0.286-0.021-0.43c-0.015-0.303-0.035-0.607-0.063-0.91c-0.014-0.16-0.031-0.319-0.049-0.479
	c-0.034-0.3-0.075-0.6-0.121-0.899c-0.022-0.145-0.042-0.289-0.067-0.433c-0.071-0.409-0.153-0.817-0.247-1.223
	c-0.006-0.027-0.011-0.055-0.017-0.082c-0.102-0.429-0.219-0.855-0.347-1.279c-0.041-0.138-0.088-0.272-0.132-0.409
	c-0.095-0.293-0.194-0.585-0.3-0.874c-0.055-0.15-0.113-0.299-0.172-0.448c-0.113-0.287-0.233-0.571-0.359-0.854
	c-0.059-0.133-0.116-0.266-0.178-0.398c-0.182-0.389-0.373-0.774-0.579-1.153c-0.01-0.018-0.018-0.036-0.027-0.053
	c-0.192-0.351-0.392-0.697-0.604-1.039l10.747-33.23c0,0,0,0,0-0.001l9.572-29.595c0.87-2.689,3.627-4.343,6.408-3.849
	c2.183,0.389,3.346,1.807,3.846,2.617c0.5,0.811,1.242,2.487,0.607,4.612l-11.567,38.691
	C451.019,257.778,449.884,261.174,448.646,264.518z"/>
<path d="M213.526,359.812c-16.547-23.509-39.147-35.249-47.734-39.081l-23.752-72.941c-3.244-9.963-13.109-15.969-23.445-14.27
	c-3.047,0.5-5.905,1.657-8.402,3.347l-2.297-7.396c-3.246-10.455-14.092-16.5-24.695-13.772c-2.232,0.576-4.322,1.541-6.213,2.8
	l-3.507-10.842c-3.158-9.767-13.162-15.785-23.265-13.978c-2.921,0.519-5.661,1.658-8.059,3.301
	c-4.56-7.939-13.549-12.465-22.936-11.046c-6.51,0.985-12.254,4.748-15.757,10.323c-3.503,5.577-4.399,12.383-2.46,18.677
	l23.641,76.717c1.207,3.918,2.407,7.915,3.622,11.962c9.279,30.908,19.796,65.94,41.415,90.492c2.73,3.102,7.459,3.403,10.56,0.671
	c3.101-2.73,3.402-7.459,0.67-10.56c-19.459-22.098-29.476-55.467-38.314-84.905c-1.226-4.083-2.436-8.117-3.654-12.068
	l-23.641-76.717c-0.665-2.157-0.37-4.398,0.831-6.309c1.201-1.911,3.092-3.149,5.322-3.487c3.688-0.562,7.207,1.598,8.384,5.136
	l4.201,14.052c0.001,0.003,0.001,0.005,0.002,0.008L45.61,258.62c10.559,35.32,31.279,65.991,60.024,88.92
	c0.927,0.739,1.863,1.471,2.806,2.195l30.814,23.617c0.315,0.241,0.646,0.448,0.986,0.633c0.037,0.02,0.073,0.043,0.111,0.063
	c0.324,0.17,0.658,0.309,0.999,0.427c0.055,0.019,0.109,0.039,0.164,0.056c0.336,0.109,0.678,0.193,1.024,0.251
	c0.056,0.01,0.113,0.017,0.169,0.026c0.351,0.052,0.703,0.083,1.057,0.085c0.014,0,0.028,0.003,0.042,0.003
	c0.066,0,0.132-0.008,0.198-0.01c0.148-0.004,0.295-0.009,0.442-0.022c0.092-0.008,0.184-0.02,0.275-0.031
	c0.141-0.017,0.28-0.037,0.419-0.062c0.094-0.017,0.188-0.037,0.28-0.058c0.136-0.03,0.27-0.063,0.404-0.1
	c0.094-0.026,0.187-0.054,0.279-0.084c0.132-0.042,0.262-0.09,0.392-0.139c0.091-0.035,0.182-0.07,0.271-0.109
	c0.13-0.056,0.256-0.117,0.383-0.181c0.087-0.043,0.173-0.085,0.257-0.132c0.129-0.071,0.254-0.149,0.379-0.227
	c0.078-0.049,0.157-0.095,0.233-0.147c0.134-0.092,0.263-0.192,0.392-0.292c0.063-0.049,0.128-0.094,0.19-0.146
	c0.188-0.157,0.369-0.322,0.544-0.499c2.648-2.695,2.871-6.94,0.521-9.898l-56.906-71.627c-0.277-0.349-0.518-0.718-0.719-1.101
	c-0.122-0.229-0.224-0.466-0.318-0.704c-0.207-0.522-0.348-1.062-0.425-1.61c-0.3-2.123,0.357-4.346,1.944-5.97
	c0.116-0.118,0.238-0.226,0.36-0.335c0.054-0.048,0.106-0.102,0.161-0.149c0.07-0.058,0.144-0.109,0.214-0.164
	c0.119-0.092,0.235-0.187,0.358-0.269c0.033-0.022,0.068-0.04,0.101-0.062c1.485-0.972,3.257-1.328,4.957-1.071
	c0.073,0.011,0.146,0.017,0.217,0.03c0.086,0.016,0.171,0.04,0.256,0.059c0.143,0.032,0.285,0.061,0.426,0.102
	c0.043,0.012,0.084,0.03,0.127,0.043c0.18,0.056,0.359,0.114,0.534,0.183c0.017,0.007,0.034,0.016,0.051,0.023
	c0.198,0.08,0.392,0.168,0.582,0.265c0.016,0.008,0.031,0.019,0.047,0.027c0.189,0.099,0.373,0.204,0.553,0.321
	c0.05,0.033,0.098,0.072,0.148,0.106c0.143,0.098,0.284,0.195,0.42,0.302c0.185,0.147,0.363,0.304,0.535,0.472l51.225,50.036
	c0.186,0.182,0.38,0.35,0.58,0.509c0.051,0.04,0.106,0.075,0.157,0.114c0.154,0.116,0.308,0.229,0.469,0.331
	c0.065,0.042,0.134,0.077,0.2,0.116c0.153,0.091,0.305,0.18,0.462,0.258c0.08,0.04,0.163,0.075,0.244,0.112
	c0.148,0.068,0.295,0.134,0.446,0.191c0.031,0.012,0.06,0.027,0.091,0.039c0.262,0.097,26.411,9.918,44.13,35.091
	c16.905,24.016,20.84,54.648,21.233,58.073v69.883h-71.233v-49.656c0-2.247-1.01-4.375-2.749-5.796l-45.193-36.905
	c-3.2-2.612-7.914-2.138-10.528,1.062c-2.614,3.201-2.138,7.915,1.062,10.529l42.444,34.659v53.589c0,4.133,3.35,7.482,7.482,7.482
	h86.197c4.132,0,7.482-3.349,7.482-7.482v-77.768c0-0.239-0.012-0.478-0.035-0.716C237.31,423.887,233.703,388.477,213.526,359.812z
	 M116.809,251.105c0.546-0.885,1.819-2.425,4.206-2.816c2.997-0.489,5.855,1.248,6.796,4.136l15.395,47.277l-5.985-5.846
	l-13.398-13.088l-7.652-24.643C115.455,253.815,116.264,251.988,116.809,251.105z M83.468,232.884
	c0.743-1.352,1.974-2.308,3.469-2.693c0.464-0.12,0.93-0.178,1.389-0.178c2.369,0,4.545,1.53,5.279,3.895l9.718,31.297
	c-0.283-0.066-0.57-0.117-0.855-0.171c-0.032-0.006-0.063-0.013-0.094-0.019c-0.665-0.123-1.337-0.214-2.017-0.275
	c-0.084-0.008-0.169-0.013-0.253-0.02c-0.673-0.053-1.352-0.086-2.04-0.08c-0.655,0.008-1.304,0.054-1.948,0.118
	c-0.17,0.017-0.338,0.036-0.507,0.057c-0.579,0.071-1.153,0.16-1.72,0.274c-0.066,0.013-0.133,0.022-0.199,0.036
	c-0.506,0.108-1.007,0.23-1.5,0.372l-9.136-28.247C82.577,235.787,82.726,234.235,83.468,232.884z M48.988,211.032
	c0.499-0.811,1.663-2.228,3.847-2.617c0.331-0.059,0.66-0.087,0.988-0.087c2.423,0,4.653,1.566,5.419,3.936l20.319,62.826
	c-0.211,0.341-0.412,0.687-0.603,1.038c-0.011,0.02-0.02,0.041-0.031,0.061c-0.205,0.378-0.395,0.761-0.577,1.148
	c-0.061,0.13-0.117,0.262-0.175,0.393c-0.127,0.284-0.247,0.571-0.361,0.859c-0.058,0.148-0.115,0.294-0.17,0.443
	c-0.109,0.293-0.209,0.589-0.304,0.885c-0.043,0.132-0.088,0.263-0.128,0.396c-0.129,0.426-0.247,0.855-0.349,1.287
	c-0.004,0.016-0.006,0.032-0.01,0.048c-0.098,0.417-0.181,0.837-0.254,1.258c-0.024,0.139-0.043,0.277-0.065,0.417
	c-0.047,0.305-0.089,0.612-0.124,0.918c-0.017,0.155-0.033,0.309-0.047,0.464c-0.028,0.308-0.049,0.618-0.064,0.927
	c-0.007,0.139-0.016,0.277-0.021,0.416c-0.013,0.443-0.017,0.886-0.004,1.328c0,0.009,0.001,0.017,0.001,0.026
	c0.013,0.434,0.042,0.868,0.081,1.301c0.013,0.141,0.031,0.281,0.046,0.422c0.033,0.306,0.072,0.612,0.118,0.917
	c0.024,0.156,0.049,0.311,0.076,0.467c0.053,0.303,0.113,0.606,0.179,0.907c0.03,0.141,0.058,0.281,0.091,0.421
	c0.1,0.421,0.209,0.84,0.334,1.256c0.004,0.012,0.006,0.024,0.009,0.036c-4.587-7.509-8.575-15.404-11.926-23.633
	c-0.976-2.397-1.88-4.832-2.746-7.285c-0.919-2.599-1.796-5.219-2.59-7.876l-11.567-38.691
	C47.745,213.519,48.489,211.842,48.988,211.032z"/>
<g>
</g>
<g>
</g>
<g>
</g>
<g>
</g>
<g>
</g>
<g>
</g>
<g>
</g>
<g>
</g>
<g>
</g>
<g>
</g>
<g>
</g>
<g>
</g>
<g>
</g>
<g>
</g>
<g>
</g>
</svg>
