<svg height="511pt" viewBox="-8 1 511 511.999" width="511pt" xmlns="http://www.w3.org/2000/svg"><path d="m218.933594 76.664062-210.933594-69.164062h291.097656v152.710938h-80.164062zm0 164.519532v191.300781h80.164062v-191.300781zm0 0" fill="#ffb655"/><path d="m218.933594 501.648438-210.933594-69.164063v-424.984375l210.933594 69.164062zm0 0" fill="#ffb655"/><path d="m169.1875 242.753906v91.003906l45.167969 14.808594v-91.003906zm0 0" fill="#ff7956"/><path d="m148.082031 306.960938-46.355469-15.199219c-5.34375-1.75-8.953124-6.738281-8.953124-12.359375 0-8.851563 8.648437-15.117188 17.058593-12.359375l46.355469 15.199219c5.339844 1.75 8.953125 6.738281 8.953125 12.359374 0 8.851563-8.648437 15.117188-17.058594 12.359376zm0 0" fill="#fff"/><path d="m139.1875 242.753906v33.914063l17 5.574219c5.339844 1.753906 8.953125 6.738281 8.953125 12.359374 0 8.851563-8.648437 15.117188-17.058594 12.359376l-8.894531-2.914063v29.710937l45.167969 14.8125v-91.003906zm0 0" fill="#fff"/><path d="m367.101562 160.210938h-148.167968v80.972656h148.167968v55.085937l117.121094-95.570312-117.121094-95.574219zm0 0" fill="#ff7956"/><path d="m218.933594 76.664062-134.269532-44.027343h189.292969v127.574219h-55.023437zm0 164.519532v166.164062h55.023437v-166.164062zm0 0" fill="#57a4ff"/><path d="m38 432.484375v-415.148437l-30-9.835938v424.984375l210.933594 69.164063v-9.835938zm0 0" fill="#ff7956"/><path d="m131.726562 291.761719c-5.34375-1.75-8.957031-6.738281-8.957031-12.359375 0-2.777344.851563-5.300782 2.28125-7.371094l-15.21875-4.988281c-8.410156-2.757813-17.058593 3.507812-17.058593 12.359375 0 5.621094 3.609374 10.609375 8.953124 12.359375l46.355469 15.199219c5.769531 1.894531 11.65625-.464844 14.777344-4.992188zm0 0" fill="#bddbff"/><path d="m169.1875 333.757812v-29.714843l8.890625 2.917969c2.125.695312 4.265625.816406 6.277344.464843v-25.785156l-15.167969-4.972656v-24.078125l-30-9.839844v33.917969l17 5.574219c5.339844 1.75 8.953125 6.738281 8.953125 12.359374 0 8.851563-8.648437 15.117188-17.058594 12.359376l-8.894531-2.917969v29.714843l45.167969 14.808594v-9.835937zm0 0" fill="#bddbff"/><path d="m218.933594 160.210938h30v80.972656h-30zm0 0" fill="#ff3f62"/><path d="m218.933594 160.210938h30v-83.546876l-134.269532-44.027343h-30l134.269532 44.027343zm0 0" fill="#006df0"/><path d="m218.933594 241.183594h30v166.164062h-30zm0 0" fill="#006df0"/><path d="m291.597656 424.984375h-52.664062v15h67.664062v-178.800781h-15zm0 0"/><path d="m291.597656 15v125.210938h15v-140.210938h-306.097656v437.917969l225.933594 74.082031v-440.769531l-171.492188-56.230469zm-80.164062 67.097656v409.199219l-195.933594-64.246094v-409.199219zm0 0"/><path d="m99.390625 298.886719 32.296875 10.589843v29.714844l60.167969 19.726563v-106.789063l-60.167969-19.726562v33.914062l-19.519531-6.398437c-13.277344-4.355469-26.894531 5.515625-26.894531 19.484375-.003907 8.886718 5.671874 16.71875 14.117187 19.484375zm47.296875-45.78125 30.167969 9.890625v75.21875l-30.167969-9.890625v-13.953125c12.875 3.574218 25.953125-6.039063 25.953125-19.769532 0-8.886718-5.675781-16.71875-14.117187-19.484374l-11.835938-3.882813zm-39.195312 21.0625 46.355468 15.203125c4.285156 1.402344 5.140625 7.066406 1.515625 9.691406-1.445312 1.046875-3.246093 1.328125-4.945312.773438l-46.355469-15.199219c-2.269531-.746094-3.792969-2.847657-3.792969-5.234375 0-3.753906 3.660157-6.398438 7.222657-5.234375zm0 0"/><path d="m496.085938 200.699219-136.484376-111.375v63.386719h-120.667968v15h135.667968v-46.785157l97.757813 79.773438-97.757813 79.769531v-46.785156h-135.667968v15h120.667968v63.386718zm0 0"/><path d="m281.457031 261.183594h-15v138.664062h-27.523437v15h42.523437zm0 0"/><path d="m281.460938 140.207031v-115.066406h-132.601563v15h117.601563v100.066406zm0 0"/><g fill="#fff"><path d="m256.320312 390.703125h-15v-45.042969h15zm0-55.042969h-15v-15h15zm0-25h-15v-15h15zm0 0"/><path d="m201.296875 225.800781h-15v-80.925781h15zm0-90.925781h-15v-15h15zm0-25h-15v-15h15zm0 0"/><path d="m396.980469 249.121094-9.480469-11.621094 13.480469-11 9.484375 11.621094zm21.234375-17.324219-9.484375-11.621094 11.621093-9.484375 9.484376 11.621094zm19.367187-15.804687-9.480469-11.621094 11.621094-9.484375 9.480469 11.621093zm0 0"/></g></svg>