<svg id="Capa_1" enable-background="new 0 0 512 512" height="512" viewBox="0 0 512 512" width="512" xmlns="http://www.w3.org/2000/svg"><g><g><g><path d="m426.215 484.27c-4.204 0-7.612-3.408-7.612-7.612v-23.273c0-4.204 3.408-7.612 7.612-7.612s7.612 3.408 7.612 7.612v23.273c-.001 4.205-3.408 7.612-7.612 7.612z" fill="#4a80aa"/></g></g><path d="m366.97 46.14v458.86c0 3.86-3.13 7-7 7h-332.76c-3.87 0-7-3.14-7-7v-458.86c0-3.87 3.13-7 7-7h77.37l6.96 10.14h162.04l9.02-10.14h77.37c3.87 0 7 3.13 7 7z" fill="#4a80aa"/><g><g><path d="m209.351 46.747h-31.524c-4.204 0-7.612-3.408-7.612-7.612v-15.761c0-12.889 10.485-23.374 23.374-23.374s23.374 10.485 23.374 23.374v15.762c-.001 4.204-3.408 7.611-7.612 7.611zm-23.913-15.223h16.301v-8.151c0-4.494-3.657-8.151-8.151-8.151s-8.151 3.657-8.151 8.151v8.151z" fill="#fee45a"/></g></g><path d="m335.445 77.663v395.815c0 3.866-3.134 7-7 7h-269.717c-3.866 0-7-3.134-7-7v-395.815c0-3.866 3.134-7 7-7h269.717c3.866 0 7 3.134 7 7z" fill="#f2fbff"/><path d="m292.6 70.66v2.72c0 9.38-7.63 17-17 17h-164.02c-9.37 0-17-7.62-17-17v-2.72z" fill="#f2fbff"/><path d="m40.503 39.131v472.869h-13.297c-3.866 0-7-3.134-7-7v-458.869c0-3.866 3.134-7 7-7z" fill="#407093"/><path d="m72.025 70.663v409.815h-13.297c-3.866 0-7-3.134-7-7v-395.815c0-3.866 3.134-7 7-7z" fill="#dff6fd"/><path d="m197.99 125.733 8.94 18.114c.739 1.498 2.168 2.536 3.821 2.776l19.99 2.905c4.162.605 5.824 5.72 2.812 8.655l-14.465 14.1c-1.196 1.166-1.742 2.845-1.459 4.491l3.415 19.909c.711 4.145-3.64 7.306-7.363 5.349l-17.88-9.4c-1.478-.777-3.244-.777-4.723 0l-17.879 9.4c-3.723 1.957-8.074-1.204-7.363-5.349l3.415-19.909c.282-1.646-.263-3.326-1.459-4.491l-14.465-14.1c-3.012-2.936-1.35-8.051 2.812-8.655l19.99-2.905c1.653-.24 3.082-1.278 3.821-2.776l8.94-18.114c1.861-3.772 7.239-3.772 9.1 0z" fill="#fed402"/><path d="m292.6 39.14v31.52h-198.02v-31.52h10l6.96 10.14h162.04l9.02-10.14z" fill="#407093"/><path d="m292.6 70.66v2.72c0 9.38-7.63 17-17 17h-164.02c-9.37 0-17-7.62-17-17v-2.72z" fill="#dff6fd"/><path d="m275.598 80.383h-164.019c-3.866 0-7-3.134-7-7v-34.247h178.019v34.247c0 3.866-3.134 7-7 7z" fill="#fee97d"/><path d="m135.028 39.131v41.254h-23.446c-3.866 0-7-3.134-7-7v-34.254z" fill="#fee45a"/><g><g><g><path d="m282.598 252.13h-178.019c-4.204 0-7.612-3.408-7.612-7.612s3.408-7.612 7.612-7.612h178.019c4.204 0 7.612 3.408 7.612 7.612-.001 4.204-3.408 7.612-7.612 7.612z" fill="#5892ba"/></g><g><path d="m282.598 283.654h-178.019c-4.204 0-7.612-3.408-7.612-7.612s3.408-7.612 7.612-7.612h178.019c4.204 0 7.612 3.408 7.612 7.612s-3.408 7.612-7.612 7.612z" fill="#5892ba"/></g><g><path d="m282.598 315.178h-178.019c-4.204 0-7.612-3.408-7.612-7.612s3.408-7.612 7.612-7.612h178.019c4.204 0 7.612 3.408 7.612 7.612-.001 4.204-3.408 7.612-7.612 7.612z" fill="#5892ba"/></g><g><path d="m282.598 346.703h-178.019c-4.204 0-7.612-3.408-7.612-7.612s3.408-7.612 7.612-7.612h178.019c4.204 0 7.612 3.408 7.612 7.612s-3.408 7.612-7.612 7.612z" fill="#5892ba"/></g><g><path d="m280.95 440.26h-59.34c-4.204 0-7.612-3.408-7.612-7.612s3.408-7.612 7.612-7.612h59.34c4.204 0 7.612 3.408 7.612 7.612-.001 4.204-3.409 7.612-7.612 7.612z" fill="#5892ba"/></g></g></g><path d="m442.5 398.67v8.5l3 3.12v25.16c0 6.93-3.94 12.95-9.7 15.93-2.47 1.29-5.27 2.01-8.24 2.01h-2.69c-9.91 0-17.94-8.04-17.94-17.94v-25.16l3-3.29v-8.17l-3-3.77v-112.38h38.57v112.38z" fill="#fee97d"/><path d="m441.928 114.117h-31.427v-34.427c0-3.866 3.134-7 7-7h17.427c3.866 0 7 3.134 7 7z" fill="#fee97d"/><path d="m436.36 450.97c-.17.1-.36.24-.56.41-2.47 1.29-5.27 2.01-8.24 2.01h-2.69c-9.91 0-17.94-8.04-17.94-17.94v-25.16l3-3.29v-8.17l-3-3.77v-112.38h20.3v152.49c0 6.75 3.67 12.66 9.13 15.8z" fill="#fee45a"/><path d="m406.93 395.06h38.57v15.23h-38.57z" fill="#4a80aa"/><path d="m406.93 395.06h20.3v15.23h-20.3z" fill="#407093"/><path d="m452.84 111.12v174.56c0 3.87-3.13 7-7 7h-39.25c-3.87 0-7-3.13-7-7v-118.71l10-7.47v-16.5l-10-7.46v-24.42c0-3.87 3.13-7 7-7h39.25c3.87 0 7 3.13 7 7z" fill="#ee7249"/><path d="m419.88 104.12v188.56h-13.29c-3.87 0-7-3.13-7-7v-118.71l10-7.47v-16.5l-10-7.46v-24.42c0-3.87 3.13-7 7-7z" fill="#e8442d"/><path d="m477.182 166.971h-77.595v-31.427h84.595v24.427c0 3.866-3.134 7-7 7z" fill="#fee97d"/><path d="m399.585 135.544h20.297v31.43h-20.297z" fill="#fee45a"/><g><g><path d="m483.259 221.668c-3.882-.457-6.688-3.967-6.688-7.876v-70.317c0-3.909 2.806-7.419 6.688-7.876 4.617-.543 8.535 3.049 8.535 7.557v70.956c0 4.507-3.919 8.1-8.535 7.556z" fill="#4a80aa"/></g></g></g></svg>