<svg id="Layer_35" enable-background="new 0 0 64 64" height="512" viewBox="0 0 64 64" width="512" xmlns="http://www.w3.org/2000/svg"><path d="m62 46v14c0 1.1-.9 2-2 2h-56c-1.1 0-2-.9-2-2v-14h4 5 12 5z" fill="#aab2bd"/><path d="m8 52h8.54c-.34.59-.54 1.27-.54 2s.2 1.41.54 2h-8.54c-.55 0-1.05-.22-1.41-.59-.37-.36-.59-.86-.59-1.41 0-1.1.9-2 2-2z" fill="#ffeaa7"/><path d="m24 54c0-.73-.2-1.41-.54-2h32.54c.55 0 1.05.22 1.41.59.37.36.59.86.59 1.41 0 1.1-.9 2-2 2h-32.54c.34-.59.54-1.27.54-2z" fill="#ffeaa7"/><path d="m23.46 52c.34.59.54 1.27.54 2s-.2 1.41-.54 2c-.69 1.2-1.98 2-3.46 2s-2.77-.8-3.46-2c-.34-.59-.54-1.27-.54-2s.2-1.41.54-2c.69-1.2 1.98-2 3.46-2s2.77.8 3.46 2z" fill="#fcd770"/><path d="m60 12h-56c-1.105 0-2 .895-2 2v32h60v-32c0-1.105-.895-2-2-2z" fill="#69d6f4"/><path d="m23 46h-12-5v-8c0-4.42 3.58-8 8-8h1.8l-.8 9 2 2 2-2-.8-9h1.8c4.42 0 8 3.58 8 8v8z" fill="#fcd770"/><path d="m18 30h.2l.8 9-2 2-2-2 .8-9h1.2z" fill="#b4dd7f"/><path d="m58 28v12c0 1.1-.9 2-2 2h-16c-1.1 0-2-.9-2-2v-12c0-1.1.9-2 2-2h16c1.1 0 2 .9 2 2z" fill="#ffeaa7"/><path d="m32 2c5.52 0 10 4.48 10 10s-4.48 10-10 10-10-4.48-10-10 4.48-10 10-10z" fill="#e6e9ed"/><path d="m36 12-8 4v-8z" fill="#ff826e"/><circle cx="17" cy="24" fill="#fcd770" r="6"/><path d="m27 6.382v11.236l11.236-5.618zm2 3.236 4.764 2.382-4.764 2.382z"/><path d="m60 11h-17.051c-.507-5.598-5.221-10-10.949-10s-10.442 4.402-10.949 10h-17.051c-1.654 0-3 1.346-3 3v46c0 1.654 1.346 3 3 3h56c1.654 0 3-1.346 3-3v-46c0-1.654-1.346-3-3-3zm-28-8c4.963 0 9 4.037 9 9s-4.037 9-9 9-9-4.037-9-9 4.037-9 9-9zm-28 10h17.051c.507 5.598 5.221 10 10.949 10s10.442-4.402 10.949-10h17.051c.552 0 1 .448 1 1v31h-32v-7c0-4.379-3.145-8.033-7.294-8.833 1.405-1.281 2.294-3.12 2.294-5.167 0-3.859-3.141-7-7-7s-7 3.141-7 7c0 2.047.889 3.886 2.294 5.167-4.149.8-7.294 4.454-7.294 8.833v7h-2v-31c0-.552.448-1 1-1zm18 22v10h-10v-10h-2v10h-3v-7c0-3.859 3.141-7 7-7h.707l-.744 8.377 3.037 3.037 3.037-3.037-.745-8.377h.708c3.859 0 7 3.141 7 7v7h-3v-10zm-4.037 3.623-.963.963-.963-.963.678-7.623h.285.285zm-.963-9.623c-2.757 0-5-2.243-5-5s2.243-5 5-5 5 2.243 5 5-2.243 5-5 5zm43 32h-56c-.552 0-1-.448-1-1v-13h58v13c0 .552-.448 1-1 1z"/><circle cx="20" cy="54" r="1"/><path d="m56 51h-32.026c-.914-1.207-2.348-2-3.974-2s-3.061.793-3.974 2h-8.026c-1.654 0-3 1.346-3 3s1.346 3 3 3h8.026c.914 1.207 2.348 2 3.974 2s3.061-.793 3.974-2h32.026c1.654 0 3-1.346 3-3s-1.346-3-3-3zm-48 4c-.552 0-1-.448-1-1s.448-1 1-1h7.101c-.066.323-.101.658-.101 1s.035.677.101 1zm12 2c-1.654 0-3-1.346-3-3s1.346-3 3-3 3 1.346 3 3-1.346 3-3 3zm36-2h-31.101c.066-.323.101-.658.101-1s-.035-.677-.101-1h31.101c.552 0 1 .448 1 1s-.448 1-1 1z"/><path d="m40 43h16c1.654 0 3-1.346 3-3v-12c0-1.654-1.346-3-3-3h-16c-1.654 0-3 1.346-3 3v12c0 1.654 1.346 3 3 3zm-1-15c0-.552.448-1 1-1h16c.552 0 1 .448 1 1v12c0 .552-.448 1-1 1h-16c-.552 0-1-.448-1-1z"/><path d="m41 29h14v2h-14z"/><path d="m41 33h14v2h-14z"/><path d="m53 37h2v2h-2z"/><path d="m41 37h10v2h-10z"/><path d="m5 15h2v2h-2z"/><path d="m5 19h2v2h-2z"/><path d="m5 23h2v2h-2z"/></svg>